<svg width="166" height="77" viewBox="0 0 166 77" fill="none" xmlns="http://www.w3.org/2000/svg">
<path fill-rule="evenodd" clip-rule="evenodd" d="M41.1849 3.79002C40.1926 4.08339 40.4256 5.34318 41.3143 5.14472C41.6854 5.06706 41.9529 4.73054 41.9442 4.35088C41.9356 4.02299 41.6508 3.7555 41.323 3.77276C41.2712 3.77276 41.228 3.78139 41.1849 3.79002ZM119.654 44.5519C117.592 44.5519 116.91 45.2335 116.91 47.2958C116.91 45.2335 116.228 44.5519 114.166 44.5519C116.228 44.5519 116.91 43.8702 116.91 41.8079C116.91 43.8788 117.592 44.5519 119.654 44.5519ZM120.845 40.3928C119.732 40.3928 119.369 40.7639 119.369 41.8683C119.369 40.7552 118.998 40.3928 117.894 40.3928C118.99 40.3928 119.369 40.0218 119.369 38.9173C119.361 40.0304 119.74 40.3928 120.845 40.3928ZM110.292 36.6221C109.032 36.6221 108.618 37.0363 108.618 38.2961C108.618 37.0363 108.204 36.6221 106.944 36.6221C108.204 36.6221 108.618 36.1907 108.618 34.9481C108.609 36.182 109.032 36.6221 110.292 36.6221ZM111.716 33.9127C110.896 33.9127 110.62 34.1802 110.62 34.9999C110.62 34.1802 110.352 33.9127 109.533 33.9127C110.352 33.9127 110.62 33.6452 110.62 32.8169C110.62 33.6452 110.896 33.9041 111.716 33.9127ZM126.505 33.6538C125.392 35.1725 124.581 36.9155 123.917 38.7879C123.071 41.0227 121.639 46.0187 123.244 48.2536C124.434 49.9793 126.574 50.7818 128.602 50.264C130.077 49.9103 129.586 49.0129 129.767 47.546C130.077 45.3543 130.656 43.525 131.415 41.4714C132.105 39.6508 132.908 37.8733 133.831 36.1562C134.245 35.3106 134.711 34.4908 135.212 33.697C135.522 33.2483 136.549 31.652 137.136 31.8246C137.36 32.3596 136.687 33.8696 136.558 34.37C134.59 39.7629 132.45 47.6754 133.253 53.3876C133.52 55.4326 133.917 56.7355 134.901 58.211C135.703 59.3241 137.093 60.5753 138.784 60.7996C140.794 61.024 142.218 60.4459 143.788 59.4191C145.091 58.5303 146.204 57.5466 146.955 56.2006L146.998 56.1143V55.7864C146.774 55.6483 146.506 55.6483 146.196 55.5966C144.323 55.191 143.115 54.4317 141.951 52.9217C139.319 49.4357 139.673 43.7666 140.164 39.6163C140.432 37.2951 140.924 35.1552 141.467 32.9636C141.873 31.4018 143.21 27.6483 142.14 26.5352C141.7 26.2418 141.191 26.0779 140.665 26.052C140.061 26.0002 139.457 26.0779 138.879 26.2763C137.947 26.6042 137.075 27.0702 136.29 27.6569C135.177 28.4594 134.193 29.4862 133.253 30.513C132.942 30.8668 132.675 31.2292 132.321 31.583C131.743 32.2991 131.156 33.1016 130.621 33.8609C130.31 34.3096 130.086 34.6203 129.819 35.0258C129.681 35.2933 129.197 36.0958 129.016 36.2338C129.016 35.6988 129.102 34.9827 129.059 34.3614C128.973 33.8264 128.921 33.2483 128.706 32.7996C128.084 31.6865 126.876 33.2052 126.505 33.6538ZM113.329 37.7784L112.915 37.252L112.182 38.2012L113.623 39.8406L114.986 38.6671L114.908 38.6585C114.287 38.5981 113.718 38.2788 113.329 37.7784ZM113.036 34.1198L110.827 36.4323C110.672 36.5962 110.68 36.8551 110.844 37.0104C110.939 37.0967 111.06 37.1398 111.181 37.1226L113.044 36.8292L113.873 37.7438L114.08 37.9596C114.373 38.2961 114.831 38.4341 115.262 38.3306L115.607 38.2529L114.408 40.203C114.296 40.4015 114.365 40.6517 114.563 40.7639C114.693 40.8329 114.839 40.8329 114.969 40.7639L116.953 39.53C117.419 39.2452 117.747 38.7793 117.868 38.2443L118.135 37.0622L116.694 37.623C121.078 34.974 125.116 32.2042 125.323 28.3817C124.779 28.4076 124.227 28.4594 123.684 28.5457C122.881 28.6837 122.096 28.8995 121.337 29.2015C121.526 29.8055 121.82 30.3663 122.199 30.8582C122.432 31.1688 122.709 31.4449 123.019 31.6779C122.683 31.4881 122.363 31.2723 122.07 31.0307C121.526 30.5993 121.069 30.0643 120.715 29.4689L120.422 29.6156L120.275 29.6933C118.135 30.8323 116.125 32.722 114.296 35.5349L115.124 33.9127L113.036 34.1198ZM117.704 35.1207C117.333 34.974 116.996 34.7497 116.901 34.4649C117.445 34.5685 118.006 34.5685 118.55 34.4736C118.636 34.4649 118.722 34.4391 118.808 34.4218C120.137 34.1198 121.164 33.3087 121.595 32.325C121.682 32.4545 121.716 32.6098 121.716 32.7651C121.699 33.766 119.62 35.1552 118.619 35.2674C118.299 35.2847 117.997 35.2329 117.704 35.1207ZM118.714 34.2147C118.092 34.3614 117.445 34.3787 116.824 34.2665C116.798 34.2061 116.789 34.1457 116.789 34.0767C116.772 32.8169 119.24 30.7891 120.387 31.048C120.681 31.1084 121.095 31.4881 121.354 31.8936C121.406 31.9799 121.449 32.0489 121.501 32.1266C121.095 33.0412 120.146 33.8264 118.929 34.1716C118.852 34.1975 118.783 34.2147 118.714 34.2147ZM109.075 46.1223C109.049 46.1568 109.015 46.1999 108.98 46.2345L108.972 46.2431V46.2603C108.946 46.3121 108.911 46.3639 108.877 46.407C108.696 46.6227 108.463 46.7781 108.195 46.8557C108.178 46.8557 108.178 46.8557 108.178 46.873H108.143L107.928 46.9075C107.565 46.9334 107.22 46.7867 106.979 46.5192C107.255 46.6831 107.583 46.7349 107.893 46.6745C108.195 46.6314 108.463 46.4674 108.652 46.2258C108.739 46.1223 108.799 46.0101 108.842 45.8893C108.903 45.734 108.929 45.57 108.92 45.3975C108.903 45.0782 108.782 44.7762 108.566 44.5346C108.816 44.6727 109.006 44.9056 109.093 45.1818C109.343 45.432 109.653 45.6132 109.999 45.7081C110.439 45.8289 110.905 45.7771 111.301 45.5614C111.707 45.3543 112.018 45.0005 112.164 44.5777C112.328 44.1291 112.32 43.6458 112.156 43.1972C112.432 43.62 112.518 44.1463 112.389 44.6381C112.251 45.1472 111.905 45.5787 111.44 45.8203C110.974 46.0705 110.43 46.105 109.938 45.9325C109.628 45.8203 109.36 45.6304 109.153 45.3716C109.187 45.6218 109.162 45.8721 109.067 46.105C109.067 46.1137 109.075 46.1309 109.093 46.1309L109.075 46.1223ZM102.466 49.5392C102.138 49.6428 101.784 49.6342 101.465 49.5134C101.146 49.3839 100.878 49.1596 100.697 48.8662C100.507 48.5383 100.421 48.15 100.464 47.7704C100.196 48.1414 100.127 48.6332 100.291 49.0647C100.602 49.9275 101.551 50.3762 102.405 50.0656C102.483 50.0397 102.569 49.9966 102.638 49.962C103.044 49.7463 103.311 49.3408 103.372 48.8921C103.156 49.1941 102.837 49.4271 102.466 49.5392ZM97.7113 39.2539C97.6509 40.0477 96.7794 40.4964 95.8216 42.0582C95.813 42.0841 95.8216 42.1099 95.8389 42.1186C95.8475 42.1272 95.8648 42.1272 95.8734 42.1186C96.2617 41.9201 97.254 41.4714 96.7535 42.1186C96.3652 42.6363 96.0719 43.2144 95.8648 43.8271C95.8562 43.8788 95.9166 43.9133 95.9338 43.8616C96.1323 43.6113 96.4257 43.456 96.7363 43.4215H96.883C96.883 43.4215 96.7881 43.4474 96.6241 43.7925V43.8098C95.4592 45.3802 95.209 46.5969 95.1227 47.4511C95.1227 47.477 95.1486 47.4942 95.1745 47.4942C95.1918 47.4942 95.2004 47.4856 95.209 47.477C95.5369 46.8902 96.4515 46.3294 96.8053 46.3811C96.8571 46.3811 96.9089 46.4156 96.9261 46.4674C97.1246 47.0628 96.7363 47.8825 96.3911 48.4865C96.2962 48.6332 96.2013 48.754 96.1323 48.8748C96.1236 48.9007 96.0978 48.9093 96.0805 48.9352L95.8907 49.1941C95.9511 49.125 96.0115 49.0647 96.0805 49.0043V48.9956C96.1754 48.9007 96.2962 48.7799 96.4343 48.6677C96.6155 48.4952 96.9002 48.5038 97.0642 48.685C97.1418 48.7713 97.185 48.8835 97.185 49.0043C97.2109 51.101 94.6568 52.5161 93.0087 53.7241C92.9914 53.7414 92.9828 53.7673 93.0001 53.7932C93.0087 53.8104 93.0259 53.8104 93.0432 53.8104C94.3634 53.3272 95.9683 52.102 97.3662 52.2745C97.3921 52.2832 97.4266 52.2918 97.4525 52.2918C97.8925 52.3781 98.1773 52.8009 98.0996 53.2409C98.0824 53.3445 98.0392 53.448 97.9788 53.5343C97.9529 53.5947 97.9098 53.6378 97.858 53.681L96.7708 54.6906C96.719 54.7251 96.7708 54.7855 96.8053 54.7682C97.5215 54.4403 98.3067 54.285 99.1005 54.3195C99.8167 54.354 100.524 54.518 101.18 54.82C101.465 54.9322 101.758 55.0271 102.06 55.1047C102.112 55.122 102.172 55.1306 102.233 55.1392C101.767 55.2342 101.318 55.424 100.93 55.7001C100.861 55.7605 100.783 55.8123 100.714 55.8554C100.481 56.0021 99.9462 56.5543 98.4965 56.7614C98.7813 56.8305 99.0833 56.865 99.3767 56.8563C100.257 56.8391 101.128 56.6838 101.957 56.3904L102.517 56.2006C104.588 55.4671 106.53 54.3972 108.885 54.7768C108.937 54.7768 108.937 54.8459 108.885 54.8631C107.79 55.2169 106.444 55.2946 105.46 56.028H105.451C105.167 56.2351 104.925 56.4853 104.735 56.7873C104.701 56.8477 104.657 56.9081 104.623 56.9771C106.694 55.8899 108.756 55.3895 110.749 54.82C111.12 54.6819 111.491 54.5525 111.845 54.4144C114.313 53.448 116.617 52.1969 118.187 50.1346C118.627 49.5479 119.007 48.918 119.3 48.2536C119.309 48.2363 119.3 48.2104 119.283 48.2018C119.266 48.1932 119.248 48.1932 119.24 48.2104C115.478 49.9448 111.802 48.7972 109.075 46.1654C109.136 46.0964 109.187 46.0274 109.239 45.9497C109.481 46.1136 109.748 46.2172 110.033 46.269C111.327 46.5365 112.596 45.6995 112.863 44.4052C112.872 44.3275 112.889 44.2671 112.898 44.2153C113.019 43.1368 112.415 42.1099 111.414 41.6871L113.416 40.0477L111.983 38.4255L110.162 40.4274C109.783 39.4696 108.696 39.0122 107.746 39.3919C107.298 39.5731 106.927 39.9269 106.737 40.367C106.677 40.4878 106.633 40.6258 106.599 40.7552C106.513 41.1867 106.582 41.6267 106.797 42.015C106.677 42.0237 106.564 42.0409 106.444 42.0668C105.322 38.3737 106.659 34.37 109.774 32.0834C110.378 31.652 111.025 31.2896 111.716 31.0221C111.742 31.0135 111.75 30.9876 111.742 30.9617C111.733 30.9531 111.724 30.9444 111.716 30.9358C109.326 29.8486 102 32.4976 99.6787 35.2933C99.6528 35.3192 99.6873 35.3796 99.7391 35.3537C99.9807 35.2329 100.447 34.9999 100.852 34.8446C100.904 34.8187 100.938 34.8964 100.904 34.9136C99.5233 35.9404 98.9193 36.8378 97.5819 38.6757C97.2367 39.0813 96.9347 39.5127 96.6759 39.9787L97.625 39.2625C97.6595 39.2366 97.7113 39.2625 97.6941 39.297L97.7113 39.2539ZM106.84 41.0831C106.987 40.3583 107.695 39.8838 108.42 40.0304C108.471 40.0391 108.514 40.0563 108.566 40.065C108.911 40.1685 109.196 40.436 109.326 40.7725C109.118 40.5136 108.834 40.3411 108.506 40.2893C108.204 40.2289 107.893 40.2807 107.626 40.436C107.358 40.5913 107.16 40.8415 107.048 41.1349C106.953 41.4542 106.961 41.7907 107.082 42.1013C106.84 41.8166 106.754 41.4455 106.84 41.0831ZM110.499 41.8252C110.672 41.8079 110.853 41.8511 110.999 41.946C111.069 41.9891 111.129 42.0495 111.189 42.1099C111.371 42.2998 111.448 42.5586 111.422 42.8175C111.405 43.0591 111.267 43.2834 111.051 43.4042C111.284 43.0677 111.25 42.6104 110.974 42.3084C110.913 42.248 110.844 42.1876 110.767 42.1531C110.482 42.0064 110.145 42.015 109.878 42.179C110.007 41.9546 110.24 41.8252 110.499 41.8252ZM97.1246 39.4868C97.0987 39.4351 97.1936 39.4868 97.1246 39.4868V39.4868ZM99.1351 41.7217C100.516 40.2893 103.199 40.6517 103.199 43.154C102.086 41.1867 99.4457 42.5759 99.7649 44.5864C99.8512 45.1645 100.343 45.432 100.878 45.6563C100.36 45.734 99.8254 45.6391 99.3594 45.3888C97.6682 44.4569 98.6001 42.3515 99.1351 41.7217ZM105.313 42.9901C105.589 42.6967 105.943 42.5069 106.323 42.4292C106.4 42.4033 106.478 42.3947 106.556 42.3947C106.987 42.3602 107.41 42.4896 107.755 42.7485C107.401 42.5932 107.022 42.5414 106.642 42.5931L106.564 42.6104C106.504 42.6277 106.444 42.6363 106.375 42.6536C106.323 42.6622 106.271 42.6794 106.228 42.6967H106.219L106.073 42.7744C105.874 42.8779 105.693 43.0073 105.538 43.1799C105.468 43.2662 105.408 43.3525 105.348 43.4474C105.115 43.8357 105.028 44.3016 105.115 44.7503C105.175 45.0782 105.322 45.3802 105.538 45.6304C105.512 45.5355 105.512 45.432 105.529 45.3371C105.546 45.0868 105.684 44.8711 105.9 44.7503C105.624 45.1386 105.71 45.6736 106.098 45.9497C106.383 46.1568 106.763 46.1654 107.065 45.9756C106.935 46.1827 106.702 46.3121 106.452 46.3207C106.375 46.3207 106.305 46.3207 106.236 46.3121C106.176 46.3035 106.116 46.2862 106.064 46.2517C105.952 46.2086 105.84 46.1309 105.762 46.0446C105.693 45.967 105.632 45.872 105.589 45.7771C105.253 45.5442 105.003 45.2076 104.89 44.8107C104.813 44.5605 104.795 44.293 104.83 44.0255C104.83 43.9824 104.847 43.9306 104.856 43.8874C104.899 43.6804 104.977 43.4819 105.089 43.3007C105.149 43.1885 105.227 43.085 105.313 42.9901ZM100.723 47.0369C101.56 46.4415 102.725 46.64 103.32 47.477C103.915 48.314 103.717 49.4788 102.88 50.0742C102.043 50.661 100.895 50.4711 100.291 49.6428C99.6873 48.8058 99.8771 47.6496 100.723 47.0369ZM103.38 54.9926C103.7 54.9063 104.864 54.6215 105.391 54.4835C105.443 54.4662 105.46 54.5439 105.425 54.5698C104.908 54.9149 103.631 55.726 103.251 55.5103C102.923 55.424 102.319 55.7001 102.017 55.9762C102.379 55.5275 102.845 55.1824 103.38 54.9926ZM111.301 49.9275C111.534 49.8671 111.793 49.8844 112.018 49.9707C112.846 50.3158 112.527 51.334 112.311 51.6446C111.75 52.3781 110.49 52.3522 110.361 51.1959C110.982 52.0502 112.121 51.2736 111.88 50.359C111.793 50.1001 111.56 50.0052 111.301 49.9275ZM111.681 48.8748C111.785 48.7799 111.828 48.6418 111.802 48.5038C111.88 48.616 111.923 48.7454 111.914 48.8748C111.897 49.3753 111.301 49.3926 111.103 49.3408C110.62 49.1855 110.395 48.5297 110.965 48.2449C110.637 48.7109 111.267 49.1682 111.681 48.8748ZM105.391 36.0354C104.942 36.7084 104.088 36.2511 103.855 36.0009C103.311 35.371 103.553 34.2665 104.597 34.3528C103.734 34.7497 104.226 35.8973 105.072 35.8369C105.313 35.8196 105.443 35.6212 105.555 35.4055C105.581 35.6384 105.52 35.8542 105.391 36.0354ZM104.157 32.8945C103.596 33.3173 103.191 34.2579 101.301 34.4477C101.249 34.4477 101.223 34.3959 101.266 34.37C101.637 34.0421 102.923 32.9549 104.122 32.8082C104.166 32.8169 104.191 32.8686 104.157 32.8945ZM100.429 38.3565C100.343 38.2443 100.403 38.0717 100.55 37.9682C100.628 37.8474 100.783 37.8129 100.895 37.8905C101.007 37.9682 101.051 38.1235 100.973 38.2357C100.938 38.2874 100.895 38.322 100.844 38.3392C100.688 38.46 100.507 38.46 100.429 38.3565ZM104.83 44.0169C104.83 44.0083 104.83 43.9996 104.83 43.991C104.821 43.9996 104.821 44.0083 104.83 44.0169ZM107.16 49.8757C106.935 49.7032 106.892 49.3839 107.056 49.1596C107.186 48.9007 107.496 48.8058 107.755 48.9352C107.764 48.9352 107.764 48.9439 107.772 48.9439C107.988 49.1251 108.031 49.4443 107.859 49.6773C107.677 49.9275 107.358 50.0138 107.16 49.8757ZM104.071 39.366C103.751 39.6249 103.329 39.6249 103.104 39.366C102.889 39.1072 102.966 38.6844 103.277 38.4255C103.587 38.1666 104.019 38.158 104.226 38.4255C104.433 38.693 104.381 39.1158 104.071 39.366ZM75.5184 33.7315C74.6383 35.0258 73.9307 36.4409 73.4216 37.925C72.6623 40.4274 72.4897 42.3861 72.4897 44.8452L72.7141 46.9851C72.8004 47.6668 72.9298 48.3312 73.1196 48.9956C73.9652 52.3004 75.9757 56.4508 80.083 56.4508L81.2823 56.3645C82.6198 56.1402 83.7846 55.562 84.984 54.9321C87.1671 53.7414 89.0481 52.0588 90.4719 50.0224C92.6118 47.1664 94.536 42.6104 94.8466 38.8569C94.9329 37.554 95.0364 36.717 94.8035 35.371C94.536 33.4468 93.5523 31.6175 91.6799 30.9962C90.6531 30.6424 89.1344 30.8064 88.1939 31.35C86.589 32.2819 85.8728 35.0085 85.6916 36.8896C85.5535 38.4082 86.0971 40.2375 86.6235 41.3075C86.9341 41.8684 87.3051 42.3947 87.7366 42.8693C88.1421 43.3611 88.8497 43.7149 89.3847 43.8961C89.0136 44.6813 88.5477 45.4234 88.0041 46.0964C86.6235 48.012 84.0262 50.428 81.3082 50.3331L80.8164 50.2899C81.1615 49.1078 81.7224 48.0033 82.4645 47.0283C82.7319 46.7177 82.9994 46.4502 83.2238 46.1395C83.94 45.2508 85.1911 44.0428 85.9936 43.1885C86.0799 43.0505 86.3042 42.8779 86.3474 42.6967C86.0367 42.783 84.8719 43.7667 84.6044 43.9996C83.8019 44.7158 82.1452 46.1395 81.1702 46.6314C80.4108 47.0369 79.384 46.942 78.9871 46.3207C79.4789 45.432 80.4626 43.9996 81.0839 43.1022C81.1702 42.9642 81.3514 42.7916 81.3514 42.6104C81.1615 42.6967 80.8164 43.2317 80.6352 43.3697C80.3936 43.6372 80.1002 43.8616 79.7896 44.0428C78.8577 44.5777 78.4866 44.4915 77.3304 44.6209C77.1061 43.8184 77.4167 41.0486 77.5979 40.2462C77.736 39.4868 77.9085 38.8656 78.0897 38.2012C79.0734 35.1207 80.9458 32.6616 83.9831 31.4622C84.4577 31.2637 84.9495 31.1343 85.4586 31.0566C85.9936 30.9186 87.2447 31.1947 87.2447 30.6511C87.2016 30.2973 85.4155 28.468 83.8105 28.468C82.8269 28.468 82.6025 28.4249 81.5757 28.7355C80.4454 29.072 79.4013 29.6329 78.4953 30.3836C77.2441 31.4967 76.4848 32.2129 75.5011 33.7315H75.5184ZM89.1776 41.644C88.7289 40.3065 88.5994 36.3287 89.5313 35.88C90.0232 35.6126 90.4201 36.5962 90.5582 37.0449C90.9637 38.158 90.9637 39.9442 90.8256 41.109C90.8084 41.4283 90.748 41.7389 90.6358 42.0409C90.5495 42.3084 90.4115 42.6622 90.2303 42.7571C89.6953 43.0246 89.2984 42.0841 89.1603 41.644H89.1776ZM46.319 22.0051C44.3516 22.1432 37.5781 32.7651 36.4564 34.905C34.6098 38.3306 27.0339 53.5084 30.33 58.91C31.1497 60.1266 32.3664 61.024 33.7642 61.4554C34.5236 61.6798 36.4909 61.8092 37.1122 61.1879C37.5609 60.6961 37.3365 59.8505 37.3365 59.1429V57.6588C37.3538 54.5784 37.5867 51.5066 38.0527 48.4606C38.1907 47.5287 38.9846 42.5241 39.3901 41.9029C39.3642 42.2911 39.3211 42.6794 39.2521 43.0677C39.0622 46.0187 38.7602 48.6505 39.0622 51.636C39.2003 52.3953 39.2521 53.1546 39.3729 53.914C39.5109 54.6301 39.6404 55.3463 39.8216 56.0107C40.1753 57.2619 40.6672 58.6425 41.3834 59.5485C44.1963 62.9827 48.0361 62.3183 50.849 59.5485C51.5048 58.9013 52.0225 58.1248 52.3677 57.2705C53.7482 54.052 54.6025 51.1096 55.8536 47.9861C56.7942 45.5873 57.8641 43.2489 59.0721 40.9796C60.5476 38.0286 64.025 32.722 66.0786 30.0816L67.1917 28.701C67.1227 28.8304 66.3806 30.5648 66.1218 31.1515C65.4056 32.8514 64.8188 34.6375 64.1976 36.3719C63.3174 39.1762 62.6358 42.0409 62.1526 44.9488C61.9282 46.4243 61.6607 48.2536 61.6176 49.7722C61.6176 50.0397 61.5744 50.264 61.5744 50.6178C61.5744 50.9284 61.5313 51.0665 61.5313 51.4203C61.5313 55.7519 61.7988 59.9023 63.4037 63.742C64.3874 66.02 66.1735 68.3411 68.3134 69.4974C68.7621 69.7217 69.1159 69.8511 69.5646 70.0323C69.7976 70.0927 70.0392 70.1359 70.2808 70.1704L71.0401 70.3084H72.343L72.4811 70.2653H72.6191C72.6882 70.2308 72.7658 70.2135 72.8435 70.2222L74.2241 69.9115C75.7514 69.342 77.1233 68.4274 78.245 67.2366C79.617 65.8388 81.2651 63.7507 81.4894 61.559C81.5326 61.0671 81.6275 61.024 81.2651 60.7134C80.3763 59.8677 79.3409 62.9482 75.4148 61.1621C73.4475 60.2733 71.9806 58.3923 71.2213 56.4249C69.4783 51.6878 69.2971 46.338 70.0133 40.5309C70.5483 36.2511 71.9806 30.3059 73.4993 26.1555C74.1205 24.4557 75.1042 22.2726 75.1042 20.4434C75.1042 20.1327 75.3285 19.7703 74.7936 19.2785C73.5855 18.1654 70.997 19.5028 69.8407 20.2104C66.7603 22.0397 64.5686 24.3176 62.0231 26.9062C61.307 27.6656 60.1076 29.0979 59.4345 29.8917C58.0971 31.5916 56.8459 33.2828 55.5948 35.0258C52.5575 39.4178 49.6151 44.6209 47.829 49.5824C47.6046 50.2985 46.8971 52.3953 46.8971 53.1201C44.3085 52.2745 44.2653 42.4033 44.5328 40.0391C45.2059 33.8782 46.6727 29.8055 48.5106 24.1882C48.6487 23.6964 48.9162 23.0233 48.6487 22.5833C48.1569 21.8153 47.1301 21.9534 46.319 22.0051ZM38.6912 19.7703C33.7815 20.5296 26.0588 24.9044 21.9947 27.8036C20.0792 29.1065 14.6776 33.6021 14.6776 36.1475C14.6776 37.1743 14.6345 37.3987 15.1695 38.4686C15.3852 38.9346 15.6527 39.3747 15.9719 39.7716C16.4551 40.3324 17.4388 41.3161 18.2499 41.6354C18.9661 41.8597 19.2336 41.5491 19.5528 41.0573C20.5883 39.3574 21.7272 37.7266 22.9784 36.1821C23.5134 35.509 29.3636 29.0807 30.2092 28.8132C30.1661 28.9512 28.4231 31.3586 28.285 31.5398C27.6638 32.4286 26.9821 33.3691 26.4126 34.3096C23.6428 38.5549 19.9842 45.4234 18.7331 50.4711C18.4656 51.4979 18.155 52.9734 18.1118 53.9571C18.0687 55.2083 18.155 56.2782 18.6899 57.3482C19.4579 58.9445 20.8989 60.1007 22.616 60.5149C23.4185 60.7047 25.2477 60.9636 25.7396 60.1611C25.9294 59.8074 25.8776 59.8074 25.9294 59.3155L26.0675 57.4862C26.1106 56.2351 26.6887 52.706 26.9562 51.4117C27.7414 47.7617 28.8114 44.1895 30.1575 40.7035C32.5735 34.6289 35.1621 30.1161 38.8293 24.9044C39.1399 24.4125 41.1935 21.7377 41.6854 21.2458C41.8234 21.1078 42.2635 21.1078 41.996 20.4434C41.6854 19.7703 40.5636 19.684 39.8992 19.684C39.7094 19.684 39.5454 19.7272 39.3211 19.7272C39.1226 19.7185 38.9069 19.7617 38.6912 19.7703ZM24.0915 19.1922C23.2631 19.5546 22.4693 19.8997 21.6755 20.2276C23.3063 21.1509 25.1528 21.6427 27.0339 21.6427C27.3272 21.6427 27.6379 21.6255 27.914 21.6082C31.9091 21.289 35.4037 18.778 36.9741 15.085C37.1812 14.6017 37.3538 14.1013 37.4918 13.6008C37.5954 13.1953 37.6817 12.7897 37.7334 12.3755C37.7507 12.3065 37.7507 12.2202 37.7679 12.1512C35.3088 13.6008 32.5562 15.0936 29.657 16.5604C28.1038 17.337 26.5766 18.0791 25.0752 18.7435C24.7473 18.8988 24.4194 19.0369 24.0915 19.1922ZM29.657 20.1845C28.8804 20.2449 28.1815 19.4424 28.8373 18.7004C28.6474 19.5719 29.7864 19.848 30.2179 19.1836C30.3387 18.9937 30.2696 18.778 30.1661 18.5796C30.3387 18.6917 30.4681 18.8557 30.5371 19.0541C30.7873 19.7617 29.9676 20.1327 29.6397 20.1759L29.657 20.1845ZM32.2715 17.9669C32.2715 17.8461 32.3578 17.7426 32.4786 17.7426C32.4872 17.7426 32.4872 17.7426 32.4958 17.7426C32.6166 17.7426 32.7202 17.8375 32.7202 17.9669C32.7202 18.0877 32.6253 18.1913 32.4958 18.1913C32.375 18.1913 32.2715 18.0964 32.2715 17.9669ZM14.7121 19.7703C13.1245 19.9343 12.7275 22.0569 13.5214 22.5833C13.8751 22.8421 14.3066 22.9543 14.7466 22.9111C16.2739 22.7472 16.7312 20.7281 15.9029 20.1241C15.5491 19.8739 15.1349 19.7531 14.7121 19.7703ZM15.5923 13.8424C8.66343 18.1136 4.34047 21.8843 5.08253 23.3426C5.09979 23.3944 5.12568 23.4461 5.16882 23.4806C5.89363 24.378 8.87052 24.0156 13.1417 22.7041C12.7448 22.3417 12.5032 21.8326 12.4773 21.289C10.648 21.5478 9.4659 21.3925 9.12938 20.7281C8.56852 19.5805 10.8465 17.1731 14.8588 14.3429C15.1004 14.1789 15.342 14.0064 15.5923 13.8424ZM14.4446 11.1416C14.4792 10.3133 13.6853 10.1148 13.3315 10.2098C12.7016 10.3737 12.3996 10.7361 12.3392 11.366C12.2616 11.668 12.391 11.9786 12.6671 12.1253C12.9087 12.2893 13.2107 12.3497 13.4955 12.2893C14.0305 12.1771 14.4274 11.7025 14.4446 11.1416ZM36.6203 3.4535C41.3402 1.90034 44.714 1.50342 45.3008 2.65966C45.9738 3.96259 42.9106 6.93948 37.8283 10.2356V10.2011V10.1752C37.4832 4.22145 32.375 -0.334489 26.4212 0.0192863C20.4675 0.373062 15.9115 5.47261 16.2567 11.4264C16.4292 14.4033 17.8185 17.1731 20.105 19.08L20.1309 19.1059H20.1482C20.1482 19.1059 20.1482 19.1145 20.1482 19.1232C18.8711 19.6064 17.6718 20.0033 16.55 20.3484C16.6708 20.6073 16.7312 20.892 16.7226 21.1768C16.7226 21.289 16.7054 21.3925 16.6881 21.5047C18.0514 20.987 19.5097 20.4175 21.0283 19.7876C23.6601 18.6831 26.473 17.3974 29.3636 15.9478C32.4095 14.4292 35.2656 12.8674 37.837 11.3487C45.3957 6.85319 50.3227 2.77183 49.874 1.11513C49.8567 1.0461 49.8395 1.01159 49.8222 0.959814C49.0801 -0.524318 43.4629 0.683697 35.8696 3.6951C36.1112 3.60882 36.3528 3.53978 36.5944 3.4535C36.6117 3.43624 36.6117 3.43624 36.629 3.43624L36.6203 3.4535ZM27.4826 9.00174C27.241 9.00174 27.0339 8.80327 27.0339 8.56167V8.55304C27.0511 8.30281 27.2668 8.12161 27.5085 8.13024C27.7328 8.1475 27.914 8.32007 27.9313 8.55304C27.9313 8.79465 27.7328 9.00174 27.4826 9.00174ZM34.3855 8.40636C34.2647 7.99218 33.8764 7.84549 33.4536 7.74195C33.8246 7.62977 34.2216 7.64703 34.584 7.78509C35.9128 8.29418 35.4468 9.925 35.1189 10.4341C34.2561 11.6162 32.2628 11.6249 32.0126 9.8042C33.0308 11.1071 34.8083 9.83872 34.3855 8.40636ZM24.7386 15.0245C24.7473 14.7829 24.9457 14.5845 25.1873 14.5759C25.4289 14.5759 25.636 14.7743 25.636 15.0159V15.0245C25.636 15.2662 25.4376 15.4646 25.1873 15.4732C24.9457 15.4732 24.7473 15.2748 24.7386 15.0245ZM20.3725 8.55304C20.3725 8.67385 20.269 8.77739 20.1482 8.77739C20.0274 8.77739 19.9238 8.67385 19.9238 8.55304C19.9238 8.43224 20.0274 8.3287 20.1482 8.3287C20.269 8.3287 20.3639 8.41498 20.3725 8.53579C20.3725 8.54441 20.3725 8.54442 20.3725 8.55304ZM19.2336 11.3832C20.0015 10.5894 21.5029 10.7879 21.5029 12.1857C20.8816 11.0899 19.4061 11.8578 19.5787 12.9796C19.6305 13.3074 19.9066 13.4541 20.2 13.5749C19.9066 13.6181 19.6132 13.5663 19.3544 13.4282C18.4138 12.9019 18.9316 11.7284 19.2336 11.3832ZM22.987 5.33455C22.5125 5.33455 22.1242 4.94626 22.1242 4.47168C22.1242 3.99711 22.5125 3.60882 22.987 3.60882C23.4616 3.60882 23.8499 3.99711 23.8499 4.47168C23.8499 4.94626 23.4789 5.32592 23.0043 5.33455C22.9957 5.33455 22.987 5.33455 22.987 5.33455ZM28.4576 4.23008C28.3195 3.96259 28.2678 3.66058 28.3109 3.36721C28.5007 2.28863 29.7864 2.39217 30.2265 2.55612C31.2533 3.03069 31.5639 4.52345 30.2265 4.99803C31.0635 4.03162 29.8296 2.88401 28.82 3.42761C28.5266 3.58293 28.4749 3.89356 28.449 4.22145H28.4576V4.23008Z" fill="#F9F9F9"/>
<path fill-rule="evenodd" clip-rule="evenodd" d="M41.1849 3.79002C40.1926 4.08339 40.4256 5.34318 41.3143 5.14472C41.6854 5.06706 41.9529 4.73054 41.9442 4.35088C41.9356 4.02299 41.6508 3.7555 41.323 3.77276C41.2712 3.77276 41.228 3.78139 41.1849 3.79002ZM24.0915 19.1922C23.2631 19.5546 22.4693 19.8997 21.6755 20.2276C23.3063 21.1509 25.1528 21.6427 27.0339 21.6427C27.3272 21.6427 27.6379 21.6255 27.914 21.6082C31.9091 21.289 35.4037 18.778 36.9741 15.0849C37.1812 14.6017 37.3538 14.1013 37.4918 13.6008C37.5954 13.1953 37.6817 12.7897 37.7334 12.3755C37.7507 12.3065 37.7507 12.2202 37.7679 12.1512C35.3088 13.6008 32.5562 15.0936 29.657 16.5604C28.1038 17.337 26.5766 18.0791 25.0752 18.7435C24.7473 18.8988 24.4194 19.0369 24.0915 19.1922ZM29.657 20.1845C28.8804 20.2449 28.1815 19.4424 28.8373 18.7004C28.6474 19.5719 29.7864 19.848 30.2179 19.1836C30.3387 18.9937 30.2696 18.778 30.1661 18.5796C30.3387 18.6917 30.4681 18.8557 30.5371 19.0541C30.7873 19.7617 29.9676 20.1327 29.6397 20.1759L29.657 20.1845ZM32.2715 17.9669C32.2715 17.8461 32.3578 17.7426 32.4786 17.7426C32.4872 17.7426 32.4872 17.7426 32.4958 17.7426C32.6166 17.7426 32.7202 17.8375 32.7202 17.9669C32.7202 18.0877 32.6253 18.1913 32.4958 18.1913C32.375 18.1913 32.2715 18.0964 32.2715 17.9669ZM14.7121 19.7703C13.1245 19.9343 12.7275 22.0569 13.5214 22.5833C13.8751 22.8421 14.3066 22.9543 14.7466 22.9111C16.2739 22.7472 16.7312 20.7281 15.9029 20.1241C15.5491 19.8739 15.1349 19.7531 14.7121 19.7703ZM15.5923 13.8424C8.66343 18.1136 4.34047 21.8843 5.08253 23.3426C5.09979 23.3944 5.12568 23.4461 5.16882 23.4806C5.89363 24.378 8.87052 24.0156 13.1417 22.7041C12.7448 22.3417 12.5032 21.8326 12.4773 21.289C10.648 21.5478 9.4659 21.3925 9.12938 20.7281C8.56852 19.5805 10.8465 17.1731 14.8588 14.3429C15.1004 14.1789 15.342 14.0064 15.5923 13.8424ZM14.4446 11.1416C14.4792 10.3133 13.6853 10.1148 13.3315 10.2097C12.7016 10.3737 12.3996 10.7361 12.3392 11.366C12.2616 11.668 12.391 11.9786 12.6671 12.1253C12.9087 12.2893 13.2107 12.3497 13.4955 12.2893C14.0305 12.1771 14.4274 11.7025 14.4446 11.1416ZM36.6203 3.4535C41.3402 1.90034 44.714 1.50342 45.3008 2.65966C45.9738 3.96259 42.9106 6.93948 37.8283 10.2356V10.2011V10.1752C37.4832 4.22145 32.375 -0.334489 26.4212 0.0192863C20.4675 0.373062 15.9115 5.47261 16.2567 11.4264C16.4292 14.4033 17.8185 17.1731 20.1051 19.08L20.1309 19.1059H20.1482C20.1482 19.1059 20.1482 19.1145 20.1482 19.1232C18.8712 19.6064 17.6718 20.0033 16.55 20.3484C16.6708 20.6073 16.7312 20.892 16.7226 21.1768C16.7226 21.289 16.7054 21.3925 16.6881 21.5047C18.0514 20.987 19.5097 20.4175 21.0283 19.7876C23.6601 18.6831 26.473 17.3974 29.3636 15.9478C32.4095 14.4292 35.2656 12.8674 37.837 11.3487C45.3957 6.85319 50.3227 2.77183 49.874 1.11513C49.8567 1.0461 49.8395 1.01159 49.8222 0.959813C49.0801 -0.524318 43.4629 0.683697 35.8696 3.6951C36.1112 3.60882 36.3528 3.53978 36.5944 3.4535C36.6117 3.43624 36.6117 3.43624 36.629 3.43624L36.6203 3.4535ZM27.4826 9.00174C27.241 9.00174 27.0339 8.80327 27.0339 8.56167V8.55304C27.0511 8.30281 27.2669 8.12161 27.5085 8.13024C27.7328 8.14749 27.914 8.32007 27.9313 8.55304C27.9313 8.79465 27.7328 9.00174 27.4826 9.00174ZM34.3855 8.40635C34.2647 7.99218 33.8764 7.84549 33.4536 7.74195C33.8246 7.62977 34.2216 7.64703 34.584 7.78509C35.9128 8.29418 35.4468 9.925 35.1189 10.4341C34.2561 11.6162 32.2628 11.6249 32.0126 9.8042C33.0308 11.1071 34.8083 9.83871 34.3855 8.40635ZM24.7386 15.0245C24.7473 14.7829 24.9457 14.5845 25.1873 14.5759C25.4289 14.5759 25.636 14.7743 25.636 15.0159V15.0245C25.636 15.2661 25.4376 15.4646 25.1873 15.4732C24.9457 15.4732 24.7473 15.2748 24.7386 15.0245ZM20.3725 8.55304C20.3725 8.67385 20.269 8.77739 20.1482 8.77739C20.0274 8.77739 19.9239 8.67385 19.9239 8.55304C19.9239 8.43224 20.0274 8.3287 20.1482 8.3287C20.269 8.3287 20.3639 8.41498 20.3725 8.53578C20.3725 8.54441 20.3725 8.54442 20.3725 8.55304ZM19.2336 11.3832C20.0015 10.5894 21.5029 10.7879 21.5029 12.1857C20.8816 11.0899 19.4061 11.8578 19.5787 12.9796C19.6305 13.3074 19.9066 13.4541 20.2 13.5749C19.9066 13.6181 19.6132 13.5663 19.3544 13.4282C18.4138 12.9019 18.9316 11.7284 19.2336 11.3832ZM22.987 5.33455C22.5125 5.33455 22.1242 4.94626 22.1242 4.47168C22.1242 3.99711 22.5125 3.60882 22.987 3.60882C23.4616 3.60882 23.8499 3.99711 23.8499 4.47168C23.8499 4.94626 23.4789 5.32592 23.0043 5.33455C22.9957 5.33455 22.987 5.33455 22.987 5.33455ZM28.4576 4.23008C28.3195 3.96259 28.2678 3.66058 28.3109 3.36721C28.5008 2.28863 29.7864 2.39217 30.2265 2.55612C31.2533 3.03069 31.5639 4.52345 30.2265 4.99803C31.0635 4.03162 29.8296 2.884 28.82 3.42761C28.5266 3.58293 28.4749 3.89356 28.449 4.22145H28.4576V4.23008Z" fill="#FE8F01"/>
<path d="M87.4648 72.3086V63.8486H90.9928C91.8728 63.8486 92.5528 64.0446 93.0328 64.4366C93.5208 64.8206 93.7648 65.3606 93.7648 66.0566C93.7648 66.5126 93.6448 66.9046 93.4048 67.2326C93.1648 67.5606 92.8368 67.8006 92.4208 67.9526C92.9088 68.0806 93.2888 68.3166 93.5608 68.6606C93.8328 69.0046 93.9688 69.4406 93.9688 69.9686C93.9688 70.7206 93.7168 71.3006 93.2128 71.7086C92.7168 72.1086 92.0248 72.3086 91.1368 72.3086H87.4648ZM88.6648 67.5446H90.8008C91.9688 67.5446 92.5528 67.0886 92.5528 66.1766C92.5528 65.2646 91.9688 64.8086 90.8008 64.8086H88.6648V67.5446ZM88.6648 71.3486H90.9928C92.1688 71.3486 92.7568 70.8726 92.7568 69.9206C92.7568 68.9766 92.1688 68.5046 90.9928 68.5046H88.6648V71.3486ZM96.4725 74.4686L97.5165 72.1526L95.0685 66.4526H96.3645L98.1645 70.9046L99.9885 66.4526H101.236L97.7445 74.4686H96.4725ZM105.259 72.3086L109.027 63.8486H110.059L113.839 72.3086H112.567L111.679 70.2446H107.395L106.519 72.3086H105.259ZM109.531 65.2286L107.839 69.2366H111.259L109.555 65.2286H109.531ZM117.083 72.4166C116.443 72.4166 115.963 72.2366 115.643 71.8766C115.331 71.5166 115.175 70.9886 115.175 70.2926V63.8486H116.387V70.2206C116.387 71.0126 116.711 71.4086 117.359 71.4086C117.455 71.4086 117.543 71.4046 117.623 71.3966C117.711 71.3886 117.799 71.3726 117.887 71.3486L117.863 72.3206C117.591 72.3846 117.331 72.4166 117.083 72.4166ZM119.095 65.0966V63.8366H120.511V65.0966H119.095ZM119.203 72.3086V66.4526H120.415V72.3086H119.203ZM125.229 72.4166C124.269 72.4166 123.513 72.1486 122.961 71.6126C122.409 71.0686 122.133 70.3286 122.133 69.3926C122.133 68.7926 122.253 68.2646 122.493 67.8086C122.741 67.3446 123.081 66.9846 123.513 66.7286C123.945 66.4726 124.441 66.3446 125.001 66.3446C125.809 66.3446 126.445 66.6046 126.909 67.1246C127.373 67.6366 127.605 68.3446 127.605 69.2486V69.6566H123.309C123.397 70.8726 124.041 71.4806 125.241 71.4806C125.577 71.4806 125.905 71.4286 126.225 71.3246C126.553 71.2206 126.861 71.0486 127.149 70.8086L127.509 71.6486C127.245 71.8886 126.905 72.0766 126.489 72.2126C126.073 72.3486 125.653 72.4166 125.229 72.4166ZM125.049 67.1966C124.545 67.1966 124.145 67.3526 123.849 67.6646C123.553 67.9766 123.373 68.3926 123.309 68.9126H126.585C126.561 68.3686 126.417 67.9486 126.153 67.6526C125.889 67.3486 125.521 67.1966 125.049 67.1966ZM129.286 72.3086V66.4526H130.462V67.4246C130.662 67.0726 130.934 66.8046 131.278 66.6206C131.63 66.4366 132.022 66.3446 132.454 66.3446C133.838 66.3446 134.53 67.1286 134.53 68.6966V72.3086H133.318V68.7686C133.318 68.2646 133.218 67.8966 133.018 67.6646C132.826 67.4326 132.522 67.3166 132.106 67.3166C131.618 67.3166 131.226 67.4726 130.93 67.7846C130.642 68.0886 130.498 68.4926 130.498 68.9966V72.3086H129.286ZM143.997 72.4166C143.141 72.4166 142.409 72.2406 141.801 71.8886C141.193 71.5366 140.725 71.0366 140.397 70.3886C140.077 69.7326 139.917 68.9606 139.917 68.0726C139.917 67.1846 140.077 66.4166 140.397 65.7686C140.725 65.1206 141.193 64.6206 141.801 64.2686C142.409 63.9166 143.141 63.7406 143.997 63.7406C144.573 63.7406 145.109 63.8326 145.605 64.0166C146.109 64.1926 146.529 64.4486 146.865 64.7846L146.433 65.7806C146.065 65.4526 145.685 65.2166 145.293 65.0726C144.909 64.9206 144.489 64.8446 144.033 64.8446C143.121 64.8446 142.425 65.1246 141.945 65.6846C141.465 66.2446 141.225 67.0406 141.225 68.0726C141.225 69.1046 141.465 69.9046 141.945 70.4726C142.425 71.0326 143.121 71.3126 144.033 71.3126C144.489 71.3126 144.909 71.2406 145.293 71.0966C145.685 70.9446 146.065 70.7046 146.433 70.3766L146.865 71.3726C146.529 71.7006 146.109 71.9566 145.605 72.1406C145.109 72.3246 144.573 72.4166 143.997 72.4166ZM150.45 72.4166C149.81 72.4166 149.33 72.2366 149.01 71.8766C148.698 71.5166 148.542 70.9886 148.542 70.2926V63.8486H149.754V70.2206C149.754 71.0126 150.078 71.4086 150.726 71.4086C150.822 71.4086 150.91 71.4046 150.99 71.3966C151.078 71.3886 151.166 71.3726 151.254 71.3486L151.23 72.3206C150.958 72.3846 150.698 72.4166 150.45 72.4166ZM154.658 72.4166C153.242 72.4166 152.534 71.6286 152.534 70.0526V66.4526H153.746V70.0646C153.746 70.5366 153.842 70.8846 154.034 71.1086C154.226 71.3326 154.53 71.4446 154.946 71.4446C155.402 71.4446 155.77 71.2926 156.05 70.9886C156.338 70.6846 156.482 70.2766 156.482 69.7646V66.4526H157.694V72.3086H156.518V71.3726C156.326 71.7166 156.07 71.9766 155.75 72.1526C155.43 72.3286 155.066 72.4166 154.658 72.4166ZM162.906 72.4166C162.458 72.4166 162.062 72.3166 161.718 72.1166C161.374 71.9166 161.118 71.6486 160.95 71.3126V72.3086H159.762V63.8486H160.974V67.4006C161.15 67.0806 161.406 66.8246 161.742 66.6326C162.086 66.4406 162.474 66.3446 162.906 66.3446C163.426 66.3446 163.878 66.4686 164.262 66.7166C164.654 66.9646 164.954 67.3166 165.162 67.7726C165.378 68.2206 165.486 68.7566 165.486 69.3806C165.486 70.0046 165.378 70.5446 165.162 71.0006C164.954 71.4566 164.654 71.8086 164.262 72.0566C163.878 72.2966 163.426 72.4166 162.906 72.4166ZM162.606 71.4806C163.11 71.4806 163.51 71.3006 163.806 70.9406C164.11 70.5806 164.262 70.0606 164.262 69.3806C164.262 68.7006 164.11 68.1846 163.806 67.8326C163.51 67.4726 163.11 67.2926 162.606 67.2926C162.102 67.2926 161.698 67.4726 161.394 67.8326C161.098 68.1846 160.95 68.7006 160.95 69.3806C160.95 70.0606 161.098 70.5806 161.394 70.9406C161.698 71.3006 162.102 71.4806 162.606 71.4806Z" fill="#7F779E"/>
</svg>
