<svg height="200px" width="200px" version="1.1" id="Layer_1" xmlns="http://www.w3.org/2000/svg" xmlns:xlink="http://www.w3.org/1999/xlink" viewBox="0 0 512 512" xml:space="preserve" fill="#000000"><g id="SVGRepo_bgCarrier" stroke-width="0"></g><g id="SVGRepo_tracerCarrier" stroke-linecap="round" stroke-linejoin="round"></g><g id="SVGRepo_iconCarrier"> <path style="fill:#FF5023;" d="M256,512C114.839,512,0,397.161,0,256S114.839,0,256,0s256,114.839,256,256S397.161,512,256,512z"></path> <path style="fill:#CD2A00;" d="M512,256C512,114.839,397.161,0,256,0v512C397.161,512,512,397.161,512,256z"></path> <g> <path style="fill:#FFFFFF;" d="M388.481,318.4H121.292c-9.225,0-16.699-7.475-16.699-16.699s7.475-16.699,16.699-16.699h267.189 c9.225,0,16.699,7.475,16.699,16.699S397.706,318.4,388.481,318.4z"></path> <path style="fill:#FFFFFF;" d="M388.481,218.204H121.292c-9.225,0-16.699-7.475-16.699-16.699c0-9.225,7.475-16.699,16.699-16.699 h267.189c9.225,0,16.699,7.475,16.699,16.699C405.18,210.729,397.706,218.204,388.481,218.204z"></path> </g> <g> <path style="fill:#FFE6B3;" d="M388.481,285.001H254.887V318.4h133.594c9.225,0,16.699-7.475,16.699-16.699 S397.706,285.001,388.481,285.001z"></path> <path style="fill:#FFE6B3;" d="M388.481,184.805H254.887v33.399h133.594c9.225,0,16.699-7.475,16.699-16.699 C405.18,192.28,397.706,184.805,388.481,184.805z"></path> </g> </g></svg>