<!DOCTYPE svg PUBLIC "-//W3C//DTD SVG 1.1//EN" "http://www.w3.org/Graphics/SVG/1.1/DTD/svg11.dtd">
<!-- Uploaded to: SVG Repo, www.svgrepo.com, Transformed by: SVG Repo Mixer Tools -->
<svg fill="#ffae19" version="1.1" id="Capa_1" xmlns="http://www.w3.org/2000/svg" xmlns:xlink="http://www.w3.org/1999/xlink" width="800px" height="800px" viewBox="-20.44 -20.44 122.63 122.63" xml:space="preserve" stroke="#ffae19" stroke-width="0.0008175400000000001">
<g id="SVGRepo_bgCarrier" stroke-width="0" transform="translate(0,0), scale(1)">
<rect x="-20.44" y="-20.44" width="122.63" height="122.63" rx="61.315" fill="#ffffff" strokewidth="0"/>
</g>
<g id="SVGRepo_tracerCarrier" stroke-linecap="round" stroke-linejoin="round" stroke="#CCCCCC" stroke-width="0.16350800000000001"/>
<g id="SVGRepo_iconCarrier"> <g> <path d="M67.739,0H14.015C6.308,0,0,6.308,0,14.016v53.724c0,7.708,6.308,14.015,14.015,14.015h53.724 c7.707,0,14.015-6.307,14.015-14.015V14.016C81.754,6.308,75.446,0,67.739,0z M64.35,27.18c-1.185,0.728-2.466,1.383-3.823,1.969 c-0.041-1.484-0.22-2.848-0.49-4.099c1.281-0.51,2.516-1.067,3.665-1.693C64.007,24.555,64.222,25.835,64.35,27.18z M63.277,21.917 c-1.132,0.628-2.346,1.189-3.613,1.698c-0.565-1.885-1.337-3.431-2.19-4.592c1.314-0.418,2.59-0.883,3.796-1.416 C62.063,18.858,62.748,20.294,63.277,21.917z M58.756,33.723c-0.118,0.754-0.248,1.493-0.388,2.224 c-0.118,0.63-5.36,1.694-5.36,1.694c-0.365-0.958-0.794-1.939-1.259-2.975c-2.478-5.497-1.656-11.856,0.426-15.309 c0.719-1.184,1.33-1.562,1.369-1.595c0.475,0,1.407,0.495,2.336,1.586C57.982,21.808,59.842,26.874,58.756,33.723z M53.186,12.364 c2.541-0.154,5.155,1.341,7.238,4.03c-1.267,0.542-2.614,0.997-4.004,1.406c-0.972-0.944-2.01-1.514-2.876-1.514 c-0.7,0.042-1.699,0.765-2.63,2.307c-0.078,0.134-0.142,0.288-0.213,0.423c-1.464,0.203-2.958,0.353-4.5,0.401 C47.704,15.366,50.284,12.535,53.186,12.364z M28.569,20.231c2.902,0.172,5.48,3.004,6.987,7.054 c-1.537-0.049-3.025-0.199-4.488-0.4c-0.074-0.139-0.137-0.294-0.214-0.424c-0.934-1.542-1.932-2.271-2.63-2.306 c-0.867,0-1.904,0.568-2.878,1.509c-1.393-0.408-2.745-0.861-4.013-1.406C23.41,21.574,26.026,20.076,28.569,20.231z M30.02,42.528 c-0.467,1.041-0.894,2.023-1.264,2.979c0,0-5.242-1.081-5.356-1.695c-0.138-0.728-0.269-1.466-0.39-2.225 c-1.083-6.849,0.775-11.915,2.873-14.373c0.93-1.09,1.864-1.585,2.222-1.596c0.156,0.04,0.768,0.418,1.485,1.603 C31.676,30.676,32.494,37.035,30.02,42.528z M20.483,25.476c1.212,0.534,2.488,1.001,3.807,1.417 c-0.852,1.162-1.625,2.707-2.191,4.596c-1.273-0.511-2.49-1.074-3.625-1.703C19.005,28.166,19.691,26.727,20.483,25.476z M18.054,31.226c1.157,0.628,2.39,1.188,3.677,1.695c-0.274,1.252-0.452,2.616-0.492,4.103c-1.362-0.588-2.648-1.246-3.837-1.977 C17.533,33.701,17.748,32.421,18.054,31.226z M17.307,36.708c1.233,0.715,2.555,1.357,3.95,1.93 c0.038,1.023,0.119,2.075,0.294,3.181c0.072,0.464,0.163,0.886,0.245,1.335c-1.538-0.632-2.988-1.347-4.314-2.153 C17.318,39.513,17.26,38.081,17.307,36.708z M27.479,69.399c-5.959,0.014-8.278-5.429-7.886-11.187 c0.081-1.199,0.07-2.34,0.014-3.453l13.761,1.04c0.177,0.603,0.383,1.226,0.646,1.912C36.544,64.268,32.503,69.391,27.479,69.399z M34.939,44.753c-0.192,0.427-0.355,0.81-0.526,1.197c-1.387-0.077-2.737-0.237-4.059-0.438c0.301-0.758,0.633-1.538,1.008-2.377 c0.269-0.598,0.477-1.207,0.677-1.822c1.313,0.145,2.649,0.254,4.016,0.281C35.759,42.661,35.407,43.715,34.939,44.753z M36.422,40.118c-1.356-0.014-2.681-0.114-3.986-0.248c0.345-1.458,0.524-2.92,0.546-4.347c1.289,0.112,2.599,0.192,3.938,0.192 C36.887,37.164,36.731,38.642,36.422,40.118z M32.973,34.031c-0.118-2.034-0.545-3.921-1.164-5.531 c1.385,0.163,2.8,0.259,4.244,0.29c0.481,1.683,0.787,3.52,0.867,5.442C35.577,34.229,34.264,34.15,32.973,34.031z M45.699,20.922 c1.451-0.031,2.869-0.131,4.257-0.292c-0.616,1.609-1.045,3.497-1.159,5.529c-1.3,0.124-2.614,0.203-3.96,0.206 C44.914,24.442,45.22,22.606,45.699,20.922z M44.837,27.846c1.341,0,2.653-0.079,3.951-0.194c0.018,1.428,0.196,2.888,0.543,4.346 c-1.31,0.137-2.638,0.237-3.999,0.252C45.024,30.774,44.866,29.296,44.837,27.846z M45.699,33.725 c1.368-0.026,2.705-0.134,4.026-0.281c0.198,0.615,0.408,1.229,0.677,1.823c0.374,0.836,0.707,1.616,1.009,2.374 c-1.323,0.205-2.683,0.364-4.069,0.44c-0.169-0.387-0.336-0.77-0.527-1.198C46.347,35.849,45.996,34.79,45.699,33.725z M54.276,61.532c-5.023-0.009-9.065-5.135-6.538-11.686c0.265-0.687,0.47-1.314,0.648-1.912l13.759-1.042 c-0.055,1.115-0.066,2.254,0.014,3.451C62.552,56.102,60.234,61.544,54.276,61.532z M64.271,33.134 c-1.323,0.8-2.77,1.513-4.302,2.148c0.08-0.448,0.171-0.871,0.241-1.329c0.179-1.11,0.261-2.166,0.297-3.189 c1.39-0.57,2.71-1.212,3.939-1.924C64.495,30.214,64.436,31.644,64.271,33.134z"/> </g> </g>
</svg>