<?xml version="1.0" encoding="iso-8859-1"?>
<!-- Uploaded to: SVG Repo, www.svgrepo.com, Generator: SVG Repo Mixer Tools -->
<svg height="800px" width="800px" version="1.1" id="Capa_1" xmlns="http://www.w3.org/2000/svg" xmlns:xlink="http://www.w3.org/1999/xlink" 
	 viewBox="0 0 103.788 103.788" xml:space="preserve">
<g>
	<g>
		<g>
			<path style="fill:#ffffff;" d="M86.07,20.497c2.308-0.927,4.52-1.947,6.578-3.089c-0.963-2.949-2.212-5.565-3.654-7.845
				c-2.197,0.973-4.517,1.822-6.911,2.577C83.633,14.252,85.043,17.065,86.07,20.497z"/>
		</g>
		<g>
			<path style="fill:#ffffff;" d="M68.409,15.061c-2.527,0.297-5.111,0.476-7.745,0.53c-0.873,3.063-1.428,6.41-1.571,9.899
				c2.452,0,4.846-0.147,7.204-0.365C66.508,21.424,67.285,17.992,68.409,15.061z"/>
		</g>
		<g>
			<path style="fill:#ffffff;" d="M28.866,21.474c1.27,0.068,3.089,1.389,4.788,4.198c0.14,0.233,0.254,0.523,0.39,0.769
				c2.659,0.369,5.368,0.641,8.163,0.73c-2.741-7.365-7.43-12.519-12.708-12.834c-4.631-0.276-9.387,2.444-13.17,7.333
				c2.305,0.988,4.767,1.814,7.301,2.555C25.405,22.509,27.291,21.474,28.866,21.474z"/>
		</g>
		<g>
			<path style="fill:#ffffff;" d="M70.151,11.357c1.7-2.809,3.514-4.13,4.788-4.198c1.575,0,3.461,1.031,5.229,2.745
				c2.527-0.741,4.985-1.564,7.283-2.552c-3.783-4.889-8.539-7.609-13.17-7.333c-5.279,0.315-9.967,5.468-12.708,12.834
				c2.802-0.089,5.522-0.365,8.188-0.734C69.897,11.876,70.008,11.59,70.151,11.357z"/>
		</g>
		<g>
			<path style="fill:#ffffff;" d="M35.397,29.38c1.124,2.928,1.9,6.36,2.115,10.064c2.351,0.218,4.738,0.361,7.183,0.365
				c-0.143-3.493-0.698-6.836-1.571-9.899C40.49,29.856,37.917,29.677,35.397,29.38z"/>
		</g>
		<g>
			<path style="fill:#ffffff;" d="M21.715,26.46c-2.401-0.759-4.724-1.607-6.929-2.584c-1.439,2.28-2.691,4.899-3.654,7.845
				c2.065,1.145,4.28,2.169,6.599,3.096C18.759,31.388,20.169,28.575,21.715,26.46z"/>
		</g>
		<g>
			<path style="fill:#ffffff;" d="M66.283,27.834c-2.358,0.211-4.746,0.354-7.186,0.354c0.054,2.641,0.34,5.325,0.898,8.013
				c2.477-0.029,4.896-0.211,7.276-0.458C66.641,33.091,66.315,30.436,66.283,27.834z"/>
		</g>
		<g>
			<path style="fill:#ffffff;" d="M87.634,30.561c2.466-1.07,4.803-2.262,6.957-3.586c-0.229-2.444-0.626-4.771-1.181-6.95
				c-2.097,1.138-4.341,2.158-6.671,3.078C87.237,25.382,87.563,27.863,87.634,30.561z"/>
		</g>
		<g>
			<path style="fill:#ffffff;" d="M17.063,37.425c-2.337-0.923-4.585-1.943-6.689-3.085c-0.555,2.18-0.952,4.506-1.181,6.95
				c2.162,1.328,4.502,2.523,6.979,3.593C16.243,42.189,16.565,39.705,17.063,37.425z"/>
		</g>
		<g>
			<path style="fill:#ffffff;" d="M36.535,50.059c2.373,0.251,4.785,0.429,7.254,0.458c0.558-2.688,0.845-5.372,0.898-8.013
				c-2.434,0-4.814-0.143-7.161-0.354C37.491,44.755,37.165,47.41,36.535,50.059z"/>
		</g>
		<g>
			<path style="fill:#ffffff;" d="M71.053,46.004c-0.548-1.374-1.149-2.792-1.836-4.313c-0.49-1.088-0.866-2.201-1.231-3.318
				c-2.398,0.265-4.835,0.458-7.326,0.508c0.537,1.936,1.181,3.865,2.026,5.748c0.351,0.773,0.651,1.471,0.959,2.183
				C66.179,46.669,68.645,46.38,71.053,46.004z"/>
		</g>
		<g>
			<path style="fill:#ffffff;" d="M87.609,33.499c-0.075,1.861-0.222,3.779-0.537,5.798c-0.132,0.837-0.297,1.603-0.444,2.419
				c2.784-1.149,5.422-2.444,7.827-3.908c0.301-2.706,0.401-5.311,0.319-7.813C92.534,31.291,90.136,32.458,87.609,33.499z"/>
		</g>
		<g>
			<path style="fill:#ffffff;" d="M16.734,53.612c-0.319-2.015-0.465-3.93-0.537-5.791c-2.534-1.041-4.939-2.212-7.183-3.511
				c-0.082,2.498,0.018,5.103,0.319,7.813c2.412,1.467,5.053,2.766,7.848,3.915C17.034,55.223,16.866,54.453,16.734,53.612z"/>
		</g>
		<g>
			<path style="fill:#ffffff;" d="M34.585,56.007c-0.684,1.521-1.285,2.938-1.84,4.316c2.409,0.372,4.864,0.662,7.387,0.809
				c0.308-0.712,0.608-1.41,0.959-2.183c0.845-1.882,1.489-3.811,2.026-5.748c-2.484-0.05-4.914-0.243-7.304-0.508
				C35.451,53.809,35.075,54.922,34.585,56.007z"/>
		</g>
		<g>
			<path style="fill:#ffffff;" d="M38.232,79.047l-25.034-1.89c0.1,2.022,0.122,4.094-0.029,6.277
				c-0.709,10.479,3.507,20.371,14.351,20.353c9.137-0.014,16.488-9.341,11.889-21.255C38.926,81.28,38.55,80.142,38.232,79.047z"/>
		</g>
		<g>
			<path style="fill:#ffffff;" d="M9.776,55.502c0.472,2.87,1.02,5.594,1.546,8.278h27.729C28,63.01,17.915,60.029,9.776,55.502z"/>
		</g>
		<g>
			<path style="fill:#ffffff;" d="M92.462,49.464c0.523-2.684,1.074-5.408,1.546-8.278c-8.135,4.527-18.224,7.508-29.275,8.278
				H92.462z"/>
		</g>
		<g>
			<path style="fill:#ffffff;" d="M90.587,62.842l-25.034,1.89c-0.322,1.095-0.694,2.237-1.177,3.486
				c-4.599,11.914,2.756,21.24,11.889,21.255c10.84,0.018,15.06-9.874,14.351-20.353C90.465,66.936,90.486,64.864,90.587,62.842z"/>
		</g>
	</g>
</g>
</svg>