<svg xmlns="http://www.w3.org/2000/svg" fill="#00000093" viewBox="0 0 64 80" x="0px" y="0px"><path d="m25,14h14c.55,0,1-.45,1-1v-4c0-.55-.45-1-1-1h-4v-1c0-1.66-1.34-3-3-3s-3,1.34-3,3v1h-4c-.55,0-1,.45-1,1v4c0,.55.45,1,1,1Z"/><path d="m49,11h-7v2c0,1.65-1.35,3-3,3h-14c-1.65,0-3-1.35-3-3v-2h-7c-1.1,0-2,.9-2,2v45c0,1.1.9,2,2,2h34c1.1,0,2-.9,2-2V13c0-1.1-.9-2-2-2Zm-3,44h-28V18h28v37Z"/><path d="m24.29,34.13c.2.2.45.29.71.29s.51-.1.71-.29l1.12-1.12,1.12,1.12c.2.2.45.29.71.29s.51-.1.71-.29c.39-.39.39-1.02,0-1.41l-1.12-1.12,1.12-1.12c.39-.39.39-1.02,0-1.41-.39-.39-1.02-.39-1.41,0l-1.12,1.12-1.12-1.12c-.39-.39-1.02-.39-1.41,0-.39.39-.39,1.02,0,1.41l1.12,1.12-1.12,1.12c-.39.39-.39,1.02,0,1.41Z"/><path d="m34.64,34.13c.2.2.45.29.71.29s.51-.1.71-.29l1.12-1.12,1.12,1.12c.2.2.45.29.71.29s.51-.1.71-.29c.39-.39.39-1.02,0-1.41l-1.12-1.12,1.12-1.12c.39-.39.39-1.02,0-1.41-.39-.39-1.02-.39-1.41,0l-1.12,1.12-1.12-1.12c-.39-.39-1.02-.39-1.41,0-.39.39-.39,1.02,0,1.41l1.12,1.12-1.12,1.12c-.39.39-.39,1.02,0,1.41Z"/><path d="m24.65,42.76c-.26.49-.08,1.09.41,1.35.49.26,1.09.08,1.35-.41,1.1-2.07,3.24-3.35,5.58-3.35s4.48,1.28,5.58,3.35c.18.34.53.53.88.53.16,0,.32-.04.47-.12.49-.26.67-.87.41-1.35-1.45-2.72-4.27-4.41-7.35-4.41s-5.9,1.69-7.35,4.41Z"/><text x="20" y="60" fill="#000000" font-size="5px" font-weight="bold" font-family="'Helvetica Neue', Helvetica, Arial-Unicode, Arial, Sans-serif"></text><text x="0" y="84" fill="#000000" font-size="5px" font-weight="bold" font-family="'Helvetica Neue', Helvetica, Arial-Unicode, Arial, Sans-serif"></text></svg>