<svg height="200px" width="200px" version="1.1" id="Layer_1" xmlns="http://www.w3.org/2000/svg" xmlns:xlink="http://www.w3.org/1999/xlink" viewBox="0 0 512 512" xml:space="preserve" fill="#000000"><g id="SVGRepo_bgCarrier" stroke-width="0"></g><g id="SVGRepo_tracerCarrier" stroke-linecap="round" stroke-linejoin="round"></g><g id="SVGRepo_iconCarrier"> <path style="fill:#F95428;" d="M490.651,36.396v96.687c0,15.334-12.435,27.758-27.77,27.758h-55.919l-48.269,31.232l0.932-21.696 l0.414-9.536h-26.136c-15.334,0-27.77-12.424-27.77-27.758V36.396c0-15.334,12.435-27.77,27.77-27.77h128.978 C478.216,8.626,490.651,21.062,490.651,36.396z"></path> <path style="fill:#E54728;" d="M323.183,133.083V36.396c0-15.334,17.551-27.77,39.193-27.77h-17.047 c-21.642,0-39.193,12.435-39.193,27.77v96.687c0,15.334,17.551,27.758,39.193,27.758h17.047 C340.734,160.841,323.183,148.417,323.183,133.083z"></path> <path style="fill:#70E5CF;" d="M299.532,459.139v44.231H23.125v-44.231c0-33.142,16.979-62.303,42.713-79.271 c8.547-5.648,18.061-9.951,28.253-12.596c5.407,3.624,11.342,6.546,17.727,8.708h99.022c6.361-2.163,12.309-5.096,17.715-8.708 c10.158,2.646,19.66,6.925,28.184,12.562c8.95,5.867,16.841,13.229,23.329,21.719C292.284,417.531,299.532,437.478,299.532,459.139z "></path> <path style="fill:#35D8B9;" d="M58.429,455.412c0-38.401,17.201-71.455,41.934-86.382c-1.887-1.039-3.725-2.145-5.502-3.334 c-41.125,10.698-71.506,48.085-71.506,92.569v45.37h35.201c-0.081-1.024-0.127-2.059-0.127-3.106 C58.429,500.529,58.429,455.412,58.429,455.412z"></path> <g> <path style="fill:#F95428;" d="M125.777,429.039l-25.54,13.735l11.583-66.8l36.743,12.374c4.146,1.393,8.44,2.079,12.765,2.079 v19.474L125.777,429.039z"></path> <path style="fill:#F95428;" d="M210.837,375.975l11.562,66.8l-25.54-13.735l-35.531-19.137v-19.474 c4.293,0,8.618-0.686,12.744-2.079l36.743-12.374H210.837z"></path> </g> <g> <polygon style="fill:#E54728;" points="196.859,429.039 161.328,464.57 125.777,429.039 161.328,409.903 "></polygon> <path style="fill:#E54728;" d="M293.714,247.313v44.266c0,7.384-5.992,13.366-13.366,13.366h-5.127 c-7.384,0-13.366-5.982-13.366-13.366v-28.347v-18.483c0-7.384,5.982-13.366,13.366-13.366h5.127 c7.374,0,13.366,5.982,13.366,13.366V247.313z"></path> <path style="fill:#E54728;" d="M60.782,260.142v31.438c0,7.384-5.982,13.366-13.356,13.366h-5.137 c-7.384,0-13.356-5.982-13.356-13.366v-44.266v-2.563c0-7.384,5.971-13.366,13.356-13.366h5.137 c7.374,0,13.356,5.982,13.356,13.366V260.142z"></path> </g> <g> <path style="fill:#F95428;" d="M298.318,244.896v47.189c0,7.442-6.038,13.468-13.468,13.468h-3.72v-74.125h3.72 C292.28,231.428,298.318,237.455,298.318,244.896z"></path> <path style="fill:#F95428;" d="M24.605,244.896v47.189c0,7.442,6.038,13.468,13.468,13.468h3.72v-74.125h-3.72 C30.644,231.428,24.605,237.455,24.605,244.896z"></path> </g> <path style="fill:#F2F2F2;" d="M254.67,336.974c-5.77,12.195-14.78,22.713-26.121,30.298c-5.401,3.607-11.352,6.551-17.713,8.704 h-0.021l-36.743,12.374c-4.125,1.393-8.45,2.079-12.744,2.079c-4.325,0-8.618-0.686-12.765-2.079l-36.743-12.374 c-6.382-2.152-12.321-5.085-17.734-8.704c-20.456-13.662-33.305-36.87-33.305-62.326V291.58v-31.438h53.992 c43.052,0,81.706-26.437,97.308-66.578l49.772,69.669v28.347v13.366C261.855,316.276,259.302,327.173,254.67,336.974z"></path> <path style="fill:#808080;" d="M261.855,213.871v49.362l-49.772-69.669c-15.602,40.14-54.256,66.578-97.308,66.578H60.782v-46.271 c0-46.397,37.62-84.026,84.026-84.026h33.02c1.952,0,3.893,0.063,5.813,0.2C227.337,133.031,261.855,169.426,261.855,213.871z"></path> <path style="fill:#E6E6E6;" d="M172.146,388.35l-36.743-12.374c-6.382-2.152-12.321-5.085-17.734-8.704 c-20.456-13.662-33.305-36.87-33.305-62.326V291.58v-31.438H60.782v31.438v13.366c0,25.456,12.849,48.665,33.305,62.326 c5.412,3.619,11.352,6.551,17.734,8.704l36.743,12.374c4.146,1.393,8.439,2.079,12.764,2.079c3.962,0,7.949-0.591,11.782-1.776 C172.789,388.553,172.466,388.458,172.146,388.35z"></path> <path style="fill:#666666;" d="M168.39,129.845h-23.582c-46.408,0-84.026,37.63-84.026,84.026v46.271h23.582v-46.271 C84.364,167.475,121.983,129.845,168.39,129.845z"></path> <g> <path style="fill:#333333;" d="M448.494,37.906H348.296c-4.766,0-8.628,3.863-8.628,8.628s3.862,8.628,8.628,8.628h100.198 c4.766,0,8.628-3.863,8.628-8.628S453.26,37.906,448.494,37.906z"></path> <path style="fill:#333333;" d="M448.494,116.761h-57.139c-4.766,0-8.628,3.863-8.628,8.628c0,4.765,3.862,8.628,8.628,8.628h57.139 c4.766,0,8.628-3.863,8.628-8.628C457.122,120.624,453.26,116.761,448.494,116.761z"></path> <path style="fill:#333333;" d="M361.89,116.761h-13.593c-4.766,0-8.628,3.863-8.628,8.628c0,4.765,3.862,8.628,8.628,8.628h13.593 c4.766,0,8.628-3.863,8.628-8.628C370.518,120.624,366.656,116.761,361.89,116.761z"></path> <path style="fill:#333333;" d="M448.494,77.334h-8.943c-4.766,0-8.628,3.863-8.628,8.628c0,4.765,3.862,8.628,8.628,8.628h8.943 c4.766,0,8.628-3.863,8.628-8.628C457.122,81.196,453.26,77.334,448.494,77.334z"></path> <path style="fill:#333333;" d="M348.297,94.589h59.046c4.766,0,8.628-3.863,8.628-8.628c0-4.765-3.862-8.628-8.628-8.628h-59.046 c-4.766,0-8.628,3.863-8.628,8.628C339.67,90.726,343.531,94.589,348.297,94.589z"></path> <path style="fill:#333333;" d="M462.887,0H333.904c-20.067,0-36.393,16.326-36.393,36.393v96.688 c0,20.067,16.325,36.393,36.393,36.393h17.125l-0.956,22.232c-0.138,3.224,1.533,6.256,4.336,7.859 c1.329,0.762,2.807,1.139,4.285,1.139c1.634,0,3.264-0.464,4.687-1.384l46.128-29.846h53.38c20.067,0,36.393-16.326,36.393-36.393 V36.393C499.28,16.326,482.954,0,462.887,0z M482.025,133.081c0,10.552-8.585,19.137-19.137,19.137H406.96 c-1.662,0-3.29,0.481-4.687,1.384l-34.243,22.156l0.626-14.542c0.101-2.35-0.762-4.639-2.389-6.338 c-1.628-1.699-3.878-2.66-6.23-2.66h-26.133c-10.552,0-19.137-8.585-19.137-19.137V36.393c0-10.552,8.585-19.137,19.137-19.137 h128.983c10.552,0,19.137,8.585,19.137,19.137V133.081z"></path> <path style="fill:#333333;" d="M21.346,512h279.965c4.766,0,8.628-3.863,8.628-8.628V450.32c0-21.938-8.214-42.869-23.127-58.935 c-10.443-11.249-23.501-19.389-37.871-23.828c5.037-5.259,9.395-11.152,12.943-17.549h4.083c21.579,0,39.135-17.556,39.135-39.135 v-98.635c0-66.951-54.462-121.42-121.405-121.42h-44.735c-66.951,0-121.42,54.468-121.42,121.42v80.188 c0,13.72,11.162,24.882,24.882,24.882c2.749,0,5.423-0.467,7.959-1.319c1.666,19.49,9.94,37.642,23.305,51.584 c-14.362,4.439-27.414,12.579-37.851,23.826c-14.909,16.065-23.119,36.991-23.119,58.922v53.052 C12.719,508.137,16.581,512,21.346,512z M161.329,425.636l21.984,11.833l-21.984,21.976l-21.986-21.976L161.329,425.636z M110.499,433.396l7.07-40.816l27.974,9.424c2.341,0.788,4.733,1.387,7.159,1.815v6.864L110.499,433.396z M169.957,410.684v-6.864 c2.424-0.428,4.812-1.028,7.146-1.815l27.986-9.427l7.07,40.82L169.957,410.684z M292.684,450.32v44.424H169.957V475.22 l29.221-29.211l20.418,10.99c1.283,0.69,2.688,1.031,4.089,1.031c1.777,0,3.545-0.548,5.044-1.627 c2.679-1.929,4.022-5.219,3.458-8.472l-10.61-61.256c3.48-1.521,6.842-3.268,10.06-5.227 C266.087,385.577,292.684,415.296,292.684,450.32z M255.337,239.181l-35.17-49.227c-1.842-2.578-4.944-3.942-8.094-3.545 c-3.144,0.395-5.821,2.481-6.968,5.435c-7.182,18.478-19.627,34.163-35.989,45.36c-16.364,11.196-35.493,17.114-55.318,17.114 H67.32v-38.599c0-42.541,34.61-77.152,77.151-77.152h33.715c42.541,0,77.152,34.611,77.152,77.152V239.181z M269.196,332.486 c1.57-5.372,2.58-10.882,3.056-16.495c2.503,0.849,5.181,1.316,7.967,1.316c2.371,0,4.689-0.344,6.91-0.984 C284.961,324.735,277.919,331.186,269.196,332.486z M287.845,292.425c0,0.412-0.031,0.809-0.099,1.224 c-0.252,1.582-0.994,3.031-2.116,4.16c-1.453,1.446-3.375,2.243-5.411,2.243c-4.205,0-7.627-3.421-7.627-7.627v-42.581 c0-4.206,3.422-7.627,7.627-7.627c4.205,0,7.626,3.421,7.626,7.627V292.425z M50.065,292.425c0,2.036-0.796,3.958-2.217,5.385 c-1.452,1.446-3.379,2.242-5.424,2.242c-4.205,0-7.627-3.421-7.627-7.627v-42.581c0-4.206,3.422-7.627,7.627-7.627 c4.213,0,7.641,3.421,7.641,7.627C50.065,249.844,50.065,292.425,50.065,292.425z M50.065,215.719v10.447 c-2.409-0.779-4.975-1.203-7.641-1.203c-2.66,0-5.221,0.424-7.627,1.201v-13.925c0-57.436,46.727-104.164,104.164-104.164h44.734 c57.428,0,104.149,46.727,104.149,104.164v13.925c-2.404-0.777-4.966-1.2-7.626-1.2s-5.221,0.424-7.627,1.201v-10.444 c0-52.056-42.35-94.407-94.407-94.407h-33.715C92.415,121.312,50.065,163.663,50.065,215.719z M67.32,308.68v-16.254v-20.851 h46.479c23.319,0,45.816-6.961,65.062-20.129c14.996-10.26,27.193-23.726,35.844-39.454l40.633,56.872v39.816 c0,8.322-1.505,16.39-4.436,24.072h-58.216c-4.766,0-8.628,3.863-8.628,8.628s3.862,8.628,8.628,8.628h48.613 c-4.5,5.866-9.947,10.986-16.16,15.128c-4.857,3.261-10.167,5.886-15.789,7.802c-0.082,0.025-0.165,0.052-0.246,0.078 l-37.516,12.638c-6.566,2.217-13.942,2.218-20.538-0.002l-37.51-12.637c-5.693-1.918-11.095-4.569-16.053-7.879 C78.597,352.52,67.32,331.414,67.32,308.68z M29.974,450.32c0-35.025,26.597-64.743,61.043-68.862 c3.23,1.959,6.592,3.701,10.062,5.217L90.47,447.93c-0.564,3.253,0.779,6.543,3.458,8.473c1.499,1.079,3.267,1.627,5.044,1.627 c1.401,0,2.807-0.34,4.09-1.031l20.419-10.989l29.222,29.212v19.524H29.974V450.32z"></path> </g> </g></svg>